<?xml version="1.0" encoding="UTF-8" standalone="no"?><svg xmlns="http://www.w3.org/2000/svg" xmlns:xlink="http://www.w3.org/1999/xlink" style="isolation:isolate" viewBox="707.2 506.1 455.6 113.8" width="455.6pt" height="113.8pt"><defs><clipPath id="_clipPath_tOvNw7PV1qJ09W6brAGaclYADGLVjnVD"><rect x="707.2" y="506.1" width="455.6" height="113.8"/></clipPath></defs><g clip-path="url(#_clipPath_tOvNw7PV1qJ09W6brAGaclYADGLVjnVD)"><g><g><path d=" M 1103.28 619.9 L 1121.04 619.9 L 1121.04 585.34 L 1121.64 585.34 C 1123.44 592.18 1130.4 597.34 1138.56 597.34 C 1154.52 597.34 1162.8 585.7 1162.8 564.34 C 1162.8 542.98 1154.52 531.46 1138.56 531.46 C 1130.4 531.46 1123.44 536.5 1121.64 543.46 L 1121.04 543.46 L 1121.04 532.9 L 1103.28 532.9 L 1103.28 619.9 Z  M 1132.68 581.94 C 1125.96 581.94 1121.04 578.46 1121.04 572.7 L 1121.04 554.1 C 1121.04 548.34 1125.96 544.86 1132.68 544.86 C 1139.4 544.86 1144.32 550.02 1144.32 557.94 L 1144.32 568.86 C 1144.32 576.78 1139.4 581.94 1132.68 581.94 Z " fill-rule="evenodd" fill="rgb(233,64,86)"/><path d=" M 763.6 595.9 L 778.96 595.9 L 778.96 549.22 L 745.96 549.22 L 745.96 564.46 L 761.56 564.46 L 761.56 568.66 C 761.56 576.82 754.24 581.14 745.12 581.14 C 733.84 581.14 726.52 574.66 726.52 560.74 L 726.52 547.3 C 726.52 533.38 733.84 526.9 745.12 526.9 C 754.84 526.9 760 532.18 762.52 538.66 L 777.4 530.14 C 771.16 517.3 760 510.7 745.12 510.7 C 722.44 510.7 707.2 526.18 707.2 554.38 C 707.2 582.46 722.32 597.34 741.52 597.34 C 754.12 597.34 761.8 590.98 763 582.58 L 763.6 582.58 L 763.6 595.9 Z " fill="rgb(132,24,128)"/><path d=" M 815.44 595.9 L 815.44 582.1 L 807.52 582.1 L 807.52 507.1 L 789.76 507.1 L 789.76 578.62 C 789.76 589.78 795.28 595.9 807.4 595.9 L 815.44 595.9 Z " fill="rgb(132,24,128)"/><path d=" M 825.12 595.9 L 842.88 595.9 L 842.88 532.9 L 825.12 532.9 L 825.12 595.9 Z " fill="rgb(132,24,128)"/><path d=" M 890.08 595.9 L 890.08 582.1 L 878.56 582.1 L 878.56 546.7 L 891.04 546.7 L 891.04 532.9 L 878.56 532.9 L 878.56 515.86 L 862.6 515.86 L 862.6 526.18 C 862.6 530.5 861.16 532.9 856.36 532.9 L 851.92 532.9 L 851.92 546.7 L 860.8 546.7 L 860.8 577.54 C 860.8 589.54 867.28 595.9 879.52 595.9 L 890.08 595.9 Z " fill="rgb(132,24,128)"/><path d=" M 924.36 596.34 C 936.72 596.34 945.72 590.94 949.92 578.94 L 936.12 572.94 C 934.32 577.98 931.44 582.3 924.36 582.3 C 917.16 582.3 913.44 577.26 913.44 569.34 L 913.44 557.58 C 913.44 549.66 917.16 544.5 924.36 544.5 C 930.6 544.5 934.08 548.34 935.16 553.14 L 949.56 546.9 C 945.84 536.58 937.08 530.46 924.36 530.46 C 905.4 530.46 894.96 543.18 894.96 563.34 C 894.96 583.5 905.4 596.34 924.36 596.34 Z " fill="rgb(132,24,128)"/><path d=" M 956.96 594.9 L 974.72 594.9 L 974.72 554.1 C 974.72 547.86 980.36 544.86 986.12 544.86 C 992.6 544.86 994.88 548.82 994.88 556.86 L 994.88 594.9 L 1012.64 594.9 L 1012.64 555.42 C 1012.64 539.58 1005.8 530.46 992.96 530.46 C 983 530.46 977.72 535.98 975.44 542.58 L 974.72 542.58 L 974.72 506.1 L 956.96 506.1 L 956.96 594.9 Z " fill="rgb(132,24,128)"/><path d=" M 834 526.86 C 841.2 526.86 844.32 523.14 844.32 518.1 L 844.32 515.46 C 844.32 510.42 841.2 506.7 834 506.7 C 826.8 506.7 823.68 510.42 823.68 515.46 L 823.68 518.1 C 823.68 523.14 826.8 526.86 834 526.86 Z " fill="rgb(132,24,128)"/><path d=" M 1062.59 508.777 L 1010.84 508.777 L 1010.84 524.977 L 1033.52 524.977 L 1033.52 594.9 L 1051.76 594.9 L 1051.76 524.977 L 1062.651 524.977 C 1062.079 523.211 1061.803 521.282 1061.803 519.236 L 1061.803 514.324 C 1061.803 512.353 1062.06 510.49 1062.59 508.777 Z " fill="rgb(233,64,86)"/><path d=" M 1081.003 526.86 C 1088.203 526.86 1091.323 523.14 1091.323 518.1 L 1091.323 515.46 C 1091.323 510.42 1088.203 506.7 1081.003 506.7 C 1073.803 506.7 1070.683 510.42 1070.683 515.46 L 1070.683 518.1 C 1070.683 523.14 1073.803 526.86 1081.003 526.86 Z " fill="rgb(233,64,86)"/><path d=" M 1072.123 595.9 L 1089.883 595.9 L 1089.883 532.9 L 1072.123 532.9 L 1072.123 595.9 Z " fill="rgb(233,64,86)"/></g><g opacity="0.5"><path d=" M 729.52 547.971 L 729.52 547.3 C 729.52 533.38 736.84 526.9 748.12 526.9 C 757.84 526.9 763 532.18 765.52 538.66 L 780.4 530.14 C 774.16 517.3 763 510.7 748.12 510.7 C 726.838 510.7 712.107 524.33 710.372 549.311 L 710.372 549.311 L 729.52 547.971 Z  M 792.76 543.545 L 792.76 543.545 L 792.76 507.1 L 810.52 507.1 L 810.52 542.302 L 792.76 543.545 Z  M 828.12 541.07 L 828.12 541.07 L 828.12 532.9 L 845.88 532.9 L 845.88 539.827 L 828.12 541.07 Z  M 854.92 539.195 L 854.92 539.195 L 854.92 532.9 L 859.36 532.9 C 864.16 532.9 865.6 530.5 865.6 526.18 L 865.6 515.86 L 881.56 515.86 L 881.56 532.9 L 894.04 532.9 L 894.04 536.457 L 854.92 539.195 Z  M 910.023 535.338 L 910.023 535.338 C 914.591 532.173 920.402 530.46 927.36 530.46 C 932.383 530.46 936.789 531.414 940.51 533.205 L 910.023 535.338 Z  M 959.96 531.844 L 959.96 531.844 L 959.96 506.1 L 977.72 506.1 L 977.72 530.601 L 959.96 531.844 Z  M 837 526.86 C 844.2 526.86 847.32 523.14 847.32 518.1 L 847.32 515.46 C 847.32 510.42 844.2 506.7 837 506.7 C 829.8 506.7 826.68 510.42 826.68 515.46 L 826.68 518.1 C 826.68 523.14 829.8 526.86 837 526.86 L 837 526.86 Z " fill-rule="evenodd" fill="rgb(233,64,86)"/></g><g opacity="0.5"><path d=" M 781.96 580.293 L 781.96 565.793 L 764.56 567.012 L 764.56 568.66 C 764.56 576.82 757.24 581.14 748.12 581.14 C 739.509 581.14 733.206 577.364 730.705 569.384 L 712.197 570.681 C 713.682 576.197 715.945 580.884 718.82 584.717 L 781.96 580.293 Z  M 810.52 578.291 L 810.52 563.791 L 792.76 565.036 L 792.76 578.62 C 792.76 578.929 792.764 579.234 792.773 579.535 L 810.52 578.291 Z  M 845.88 575.814 L 845.88 561.314 L 828.12 562.558 L 828.12 577.058 L 845.88 575.814 Z  M 881.56 573.314 L 881.56 558.814 L 863.8 560.058 L 863.8 574.558 L 881.56 573.314 Z  M 916.488 570.866 C 916.456 570.37 916.44 569.861 916.44 569.34 L 916.44 557.58 C 916.44 557.168 916.45 556.764 916.47 556.367 L 898.258 557.643 C 898.06 559.468 897.96 561.368 897.96 563.34 C 897.96 566.445 898.208 569.376 898.696 572.113 L 916.488 570.866 Z  M 977.72 566.575 L 977.72 554.1 C 977.72 553.377 977.796 552.697 977.939 552.06 L 959.96 553.32 L 959.96 567.82 L 977.72 566.575 Z  M 997.209 550.71 C 997.674 552.393 997.88 554.442 997.88 556.86 L 997.88 565.163 L 1015.64 563.918 L 1015.64 555.42 C 1015.64 553.306 1015.518 551.312 1015.277 549.444 L 997.209 550.71 Z " fill-rule="evenodd" fill="rgb(233,64,86)"/></g><path d=" M 778.96 565.766 L 778.96 549.22 L 745.96 549.22 L 745.96 564.46 L 761.56 564.46 L 761.56 566.985 L 778.96 565.766 Z  M 727.697 569.358 C 726.927 566.891 726.52 564.022 726.52 560.74 L 726.52 547.801 L 707.384 549.142 C 707.262 550.836 707.2 552.582 707.2 554.38 C 707.2 560.422 707.9 565.852 709.19 570.655 L 727.697 569.358 Z  M 807.52 563.765 L 807.52 542.125 L 789.76 543.369 L 789.76 565.009 L 807.52 563.765 Z  M 842.88 561.287 L 842.88 539.647 L 825.12 540.892 L 825.12 562.532 L 842.88 561.287 Z  M 878.56 558.787 L 878.56 546.7 L 891.04 546.7 L 891.04 536.272 L 851.92 539.014 L 851.92 546.7 L 860.8 546.7 L 860.8 560.031 L 878.56 558.787 Z  M 913.472 556.34 C 913.845 549.126 917.543 544.5 924.36 544.5 C 930.6 544.5 934.08 548.34 935.16 553.14 L 949.56 546.9 C 947.263 540.529 943.046 535.758 937.161 533.04 L 907.327 535.131 C 900.489 539.718 896.365 547.495 895.261 557.617 L 913.472 556.34 Z  M 974.945 552.033 C 976.048 547.196 981.037 544.86 986.12 544.86 C 990.641 544.86 993.118 546.788 994.202 550.683 L 1012.273 549.417 C 1010.698 537.298 1004.079 530.46 992.96 530.46 C 983 530.46 977.72 535.98 975.44 542.58 L 974.72 542.58 L 974.72 530.409 L 956.96 531.653 L 956.96 553.293 L 974.945 552.033 Z " fill-rule="evenodd" fill="rgb(233,64,86)"/><path d=" M 778.96 580.459 L 778.96 595.9 L 763.6 595.9 L 763.6 595.9 L 763.6 595.9 L 763.6 595.9 L 763.6 595.9 L 763.6 595.9 L 763.6 582.58 L 763 582.58 C 761.8 590.98 754.12 597.34 741.52 597.34 C 731.271 597.34 722.184 593.1 715.94 584.875 L 778.96 580.459 Z  M 789.778 579.701 C 790.129 590.175 795.677 595.9 807.4 595.9 L 815.44 595.9 L 815.44 595.9 L 815.44 595.9 L 815.44 595.9 L 815.44 595.9 L 815.44 595.9 L 815.44 582.1 L 807.52 582.1 L 807.52 578.458 L 789.778 579.701 Z  M 825.12 577.225 L 825.12 595.9 L 825.12 595.9 L 825.12 595.9 L 825.12 595.9 L 825.12 595.9 L 842.88 595.9 L 842.88 575.98 L 825.12 577.225 Z  M 860.8 574.725 L 860.8 577.54 C 860.8 589.54 867.28 595.9 879.52 595.9 L 890.08 595.9 L 890.08 595.9 L 890.08 595.9 L 890.08 595.9 L 890.08 582.1 L 878.56 582.1 L 878.56 573.48 L 860.8 574.725 Z  M 895.725 572.277 C 898.45 587.217 908.378 596.34 924.36 596.34 L 924.36 596.34 L 924.36 596.34 C 936.72 596.34 945.72 590.94 949.92 578.94 L 936.12 572.94 C 934.32 577.98 931.44 582.3 924.36 582.3 C 917.687 582.3 914.003 577.971 913.5 571.032 L 895.725 572.277 Z  M 956.96 567.986 L 956.96 594.9 L 956.96 594.9 L 974.72 594.9 L 974.72 566.742 L 956.96 567.986 Z  M 994.88 565.329 L 994.88 594.9 L 1012.64 594.9 L 1012.64 564.085 L 994.88 565.329 Z " fill-rule="evenodd" fill="rgb(255,63,42)"/></g></g></svg>